PathFileType	4	(X/Y/Z)	none_P007_Squats1_0-2550.trc
DataRate	CameraRate	NumFrames	NumMarkers	Units	OrigDataRate	OrigDataStartFrame	OrigNumFrames
85	85	9	21	m	85	637	2550
Frame#	Time	RHip			RKnee			RAnkle			RBigToe			RSmallToe			RHeel			LHip			LKnee			LAnkle			LBigToe			LSmallToe			LHeel			Neck			Head			Nose			RShoulder			RElbow			RWrist			LShoulder			LElbow			LWrist		
		X1	Y1	Z1	X2	Y2	Z2	X3	Y3	Z3	X4	Y4	Z4	X5	Y5	Z5	X6	Y6	Z6	X7	Y7	Z7	X8	Y8	Z8	X9	Y9	Z9	X10	Y10	Z10	X11	Y11	Z11	X12	Y12	Z12	X13	Y13	Z13	X14	Y14	Z14	X15	Y15	Z15	X16	Y16	Z16	X17	Y17	Z17	X18	Y18	Z18	X19	Y19	Z19	X20	Y20	Z20	X21	Y21	Z21
638	7.505882352941176	0.8165230799324946	0.7324646698238438	0.4085218464630703	0.5821315050934263	0.4394725369073401	0.34764880747081794	0.7039246348904998	0.06801139505525831	0.36241223603105005	0.5219543437663943	0.01120069647566444	0.33406955423759677	0.5922917117886188	0.015558694293853126	0.2961301875092875	0.7411601166139691	0.02912502455986148	0.3814947328279933	0.7894045708478399	0.7367914102491377	0.6196411311174396	0.5697580290530744	0.43486230000056453	0.6721061243080952	0.7020260644318701	0.060928119901177726	0.658464169904972	0.5501005884057839	0.014418109054973224	0.6952735171552369	0.5904287352115877	0.0186798649933721	0.7247556586688397	0.7538613158190867	0.022332041560594856	0.6399607420475896	0.5166659894239675	1.155015995678755	0.5115821388195693	0.3237239722135886	1.3633434599565535	0.49134573079219446	0.34174676345551913	1.1865772978729225	0.4904619515517993	0.5604194580735276	1.1270719166604544	0.3776722558885112	0.7481526724956608	1.0674588134958314	0.3340362561629129	0.6651713271974641	1.1531810335957988	0.2844168295705405	0.5508950294249072	1.1244349834095573	0.6473632213347679	0.7568278228118542	1.0514106057568509	0.7181357061764966	0.6261007724291985	1.143406201268487	0.7624517791006403
639	7.517647058823529	0.8165705352475287	0.7251426986634698	0.4085411922097779	0.5777949645319678	0.4380077193306296	0.3462731748799151	0.7039779011056154	0.06707081004945628	0.36232159754385984	0.5214783929758245	0.011097751876219294	0.33395821636506645	0.5924452116713465	0.015630671084820785	0.29607794464784437	0.7415723531719373	0.028722803822827717	0.381392153956402	0.7894664254706909	0.7300013504361756	0.6196445171514573	0.5655008702329768	0.4332775142708202	0.6732157418312094	0.7023101516815317	0.06036855291719428	0.6583809325434913	0.5506556914246885	0.014245797145374457	0.695367308152979	0.5925887627753365	0.01823371333863648	0.7246745607088273	0.753911630636326	0.022218772493153335	0.6398532542109889	0.5173519826176308	1.1471219550256226	0.5113489629712531	0.323076113537534	1.3546460697506129	0.49065048438449427	0.3418006690464388	1.1776627376592732	0.490409600303297	0.5609696371812255	1.1188814426577012	0.37767803741213707	0.7526594848071891	1.059719873350046	0.33550273000934705	0.6657056593687793	1.145095992033244	0.2851903616567637	0.5511584162072838	1.116247418070304	0.6472329998158104	0.7558025200217021	1.0440194276044863	0.719093306296572	0.6276981892993023	1.1353402016540692	0.7614813537927461
640	7.529411764705882	0.8170414438122238	0.7181028794037431	0.40864782852725734	0.5736465936396979	0.43653762420266023	0.3448928003154035	0.7040743855240809	0.0661111547505129	0.36226080467494554	0.5211806434226824	0.010898894681872528	0.33382332276185556	0.5926291684383437	0.015621730358527968	0.2959801999520973	0.741960276848413	0.02826908055677034	0.38133232824626284	0.7889577590901651	0.7232164044537519	0.6195200339040802	0.5611838209722922	0.431971573247897	0.6742369196576307	0.7025620757535926	0.059835759591228777	0.6582341018119562	0.5513755400656207	0.014053190784065623	0.6956009359534917	0.5950307522636806	0.01781184177674384	0.7246233399405521	0.7538299845651721	0.02220359898414003	0.6396971830868464	0.5180103543049579	1.1390829961727444	0.5110527633555443	0.322433937281714	1.3460297202721727	0.4901554843226678	0.3417509856537044	1.1686953961680313	0.4903562024123256	0.5617063746373706	1.1107196277817208	0.37754539311424534	0.7541313399398755	1.0522799888078689	0.33568393579925476	0.667709045529701	1.136709194619216	0.28634134809537065	0.5514559355097056	1.1081190452822793	0.6469839866992197	0.7548619100507394	1.0367073694520128	0.7195676414428004	0.6290910764047459	1.1274486896722298	0.7602851510955208
641	7.541176470588235	0.8180960268205013	0.7114234303648881	0.4089229904853876	0.5697039833788514	0.43503882814849254	0.34354856344503654	0.7041930970844419	0.06518650977195471	0.36225034519859967	0.5210366923969162	0.010611859865444	0.3336748694055824	0.5928558148753017	0.01550380867019136	0.2958599663375156	0.742260742043869	0.027809004719789133	0.38132654198095156	0.7878063679068894	0.7164327874593479	0.6192201112789554	0.5568618708866974	0.4308634779380297	0.6751452559456649	0.7027585079812108	0.05935103454972691	0.6580472952890446	0.5521685842313017	0.013852327567705183	0.6959402704789586	0.5976092834552134	0.017426641884770444	0.7245946946902556	0.7536563497169962	0.022289691543481004	0.6395010789729615	0.5186364934776118	1.1308308739930142	0.5106677964992884	0.3217640977309025	1.337419172598258	0.4898989348015284	0.34160154901123235	1.1596140903812273	0.4902302286721196	0.5626033954206969	1.102731650829312	0.3773123484577792	0.7526199254507978	1.045156491488119	0.33473311311940357	0.6704599328659503	1.128121752134642	0.2875993726061098	0.5518196064060271	1.1000873319673494	0.6465614135356145	0.7541885205556742	1.0293247496581668	0.7196101110454968	0.6301916443942832	1.1197905749855683	0.7591444562101374
642	7.552941176470588	0.8197685759926454	0.7050908599755178	0.40940102557684327	0.5659702961528941	0.4334673157867533	0.34229014212767644	0.7043073653453182	0.06434398769775346	0.36229674367320785	0.5210014608219471	0.01028905332814109	0.3335350417829657	0.5931170073696088	0.015284004583950605	0.2957511334767634	0.7424523382552635	0.027380785019122358	0.38137273743288735	0.7862277921404297	0.7096448622524082	0.6187740233402089	0.5526311071825188	0.42987336700167367	0.6759070697141057	0.7028784881237928	0.05892733106878489	0.6578407085352704	0.5529264606528559	0.013650113783166664	0.6963117369529173	0.600107884675921	0.017092320545822923	0.7245795684355583	0.7534263746389288	0.02244114990555627	0.6392691446116283	0.5192347274992816	1.1224080809760084	0.510162032838156	0.321064435637195	1.3287726624319178	0.48984585036112804	0.34138636279957835	1.1504806116539281	0.4899694269565663	0.5636088350394022	1.0949382829246217	0.37699819898886994	0.748327899371233	1.0382475313697712	0.33285944866889594	0.6729942646183253	1.119538815172402	0.2886639414714942	0.5522232723532281	1.0921229324721038	0.6459225809122531	0.7538640795851695	1.0217813965578502	0.7194333918597261	0.6309101172308071	1.1123155653870922	0.7583568672215286
643	7.564705882352941	0.8219404289405705	0.6989960701979155	0.41006130225632187	0.562467719688155	0.43178437779194445	0.34119961057610565	0.7043676054112367	0.06361904841428836	0.36238942816534425	0.5209903258093803	0.010009386455506948	0.3334364862290805	0.5933349612898361	0.014994207583055539	0.29570487320929695	0.7425191002061414	0.026988994577623052	0.38144017895911636	0.7846261322776688	0.7028583307801324	0.6182775713528232	0.5486460908653641	0.42892128485448533	0.6765046845788654	0.7028853990515733	0.05856597226122761	0.6576317960518342	0.5535120072073975	0.013465050392073394	0.6966301856497354	0.6021864564373228	0.01683556553928634	0.7245734220583429	0.7531907379770907	0.022585175561853407	0.6390077713954098	0.5198203262714918	1.1139517809073294	0.5095315378909319	0.3203624651340771	1.3201053389145316	0.48989291774502086	0.34115029600486296	1.1414332156686748	0.48958306660458717	0.5646581503852391	1.0872452802148151	0.3766251590454574	0.7418561187003461	1.0313736368058892	0.33036923030877463	0.6745674778404509	1.111162871711102	0.2893315661659003	0.5526013347110643	1.0841784759783293	0.6450831552551715	0.753907809188453	1.0140672150631445	0.7192059756991801	0.6312000985577869	1.1049020730690995	0.7580581739671982
644	7.576470588235294	0.8242907276436064	0.6929625843400232	0.41081468294477946	0.5592180996607983	0.42999713842311443	0.3403736042161249	0.7043218093897167	0.06302185331949753	0.3625033187781242	0.5208892770637376	0.009840041333416857	0.3334141969775332	0.5934169871473783	0.01466701440188301	0.29576776331741583	0.7424753140031877	0.026611299270202116	0.38146510134101597	0.7833865672963963	0.6960741664313026	0.6178364092901313	0.5450981578196957	0.427904852698085	0.676953918639244	0.7027414377604186	0.058247887775739596	0.6574310580948581	0.5537616701145064	0.013334121862129246	0.6968242413494312	0.6034719937400439	0.016685477889075095	0.7245551060660674	0.7530054289174006	0.022641054872316397	0.6387326231819486	0.5204157599390855	1.1056190009418685	0.5088322479932359	0.3197015120208923	1.311467930849203	0.4899003222816526	0.3409318552087832	1.132555087326089	0.48915656508213273	0.565689708154312	1.07952141644607	0.37625963835799686	0.7344375183231814	1.0243606685446123	0.32772799996970514	0.6749547768730179	1.1030938804731192	0.28957152737537917	0.5529037965054084	1.0762257039696852	0.6441377987419227	0.7543407433299131	1.006241381776933	0.7189042962684924	0.6311353894056319	1.0974071945903088	0.7581794089098902
645	7.588235294117647	0.8263245308271395	0.6868285157437224	0.41151466266780956	0.5562169861448018	0.42814644568744886	0.33987680583295715	0.7041516499281328	0.06253238713703231	0.36260873715543684	0.5206438151242962	0.009806529836744137	0.3334817948729334	0.5933188283964449	0.014330077477146064	0.29594576889275237	0.7423809984962234	0.026233712932010527	0.38139262957657116	0.7827415193284205	0.6892703851998403	0.6175221504082332	0.5421170491140639	0.42672078447326445	0.6772965858089687	0.7024533283007791	0.05794584662077293	0.6572448343187236	0.5535673847496214	0.013286304315532408	0.6968605434847225	0.6037786039281103	0.01664835379764829	0.7244854110440182	0.752899700666887	0.022566182298297967	0.6384643155419979	0.5210269608747319	1.0975138349900595	0.5081680062551333	0.3191047006426929	1.3029111421336776	0.4897513716700753	0.34075658945700327	1.1237954232219693	0.4888171226696229	0.566641613979092	1.0716875451911785	0.3760115787308506	0.727834042557862	1.0171234269720189	0.32554876130155375	0.674503392663993	1.0952776370077937	0.28954414687175756	0.5531195958475945	1.0682549261067402	0.6432327976577834	0.7551954296163569	0.9983887402555119	0.7183252035446599	0.6309992211187978	1.0897435011021097	0.7585069013836668
646	7.6	0.8275228188678999	0.680542164999019	0.4120081038480554	0.5534333610715819	0.4262565282633262	0.33970998592652546	0.7038757656889987	0.06211890553087039	0.3626809604887274	0.5203256590015007	0.009888277601156875	0.3336262587735518	0.5930341571676457	0.014015181629644493	0.2962014901086338	0.742296885992058	0.025871062883279616	0.3812238055474434	0.7827155510755588	0.6824233726285337	0.6173574769153969	0.5396721096871361	0.42531685934297225	0.6775773298630776	0.7020951412995516	0.057640669102149864	0.6570842266525564	0.5529648999035316	0.013309106107160804	0.6967520526396714	0.6032223714771017	0.01669569433828087	0.7243431194614904	0.7528650062214429	0.022374272062417464	0.6382277603425004	0.5216102953873502	1.089644998224994	0.507646451882608	0.3185260531742437	1.2944662086518604	0.48941611833120907	0.34063376877895074	1.115020831336509	0.48868941191355686	0.5674350646552512	1.0637791105930936	0.3759872045454334	0.7236814958971813	1.0097016637603449	0.32439813526140954	0.6738702452460281	1.0875615004549568	0.2895035180568964	0.5532463210260671	1.0602808554712801	0.642501110853934	0.7564557633262244	0.9905737391147679	0.7172635046042246	0.6311620423910761	1.0819410823731321	0.7587708160551364
